<mxfile host="app.diagrams.net" modified="2020-11-19T07:43:13.598Z" agent="5.0 (Windows NT 10.0; Win64; x64) AppleWebKit/537.36 (KHTML, like Gecko) Chrome/86.0.4240.198 Safari/537.36" etag="e9ODKgD9wRIIzY9MeddH" version="13.9.9" type="github">
  <diagram name="Page-1" id="55a83fd1-7818-8e21-69c5-c3457e3827bb">
    <mxGraphModel dx="1422" dy="762" grid="1" gridSize="10" guides="1" tooltips="1" connect="1" arrows="1" fold="1" page="1" pageScale="1" pageWidth="1100" pageHeight="850" background="#ffffff" math="0" shadow="0">
      <root>
        <mxCell id="0" />
        <mxCell id="1" parent="0" />
        <mxCell id="J-1Qu8zJXRrtXZkDsQSx-7" value="" style="edgeStyle=orthogonalEdgeStyle;rounded=0;orthogonalLoop=1;jettySize=auto;html=1;entryX=0;entryY=0.5;entryDx=0;entryDy=0;" edge="1" parent="1" target="J-1Qu8zJXRrtXZkDsQSx-2">
          <mxGeometry relative="1" as="geometry">
            <mxPoint x="400" y="505" as="sourcePoint" />
            <mxPoint x="460" y="505" as="targetPoint" />
          </mxGeometry>
        </mxCell>
        <mxCell id="J-1Qu8zJXRrtXZkDsQSx-34" style="edgeStyle=orthogonalEdgeStyle;rounded=0;orthogonalLoop=1;jettySize=auto;html=1;entryX=0;entryY=0.5;entryDx=0;entryDy=0;" edge="1" parent="1" source="69ecfefc5c41e42c-4" target="J-1Qu8zJXRrtXZkDsQSx-26">
          <mxGeometry relative="1" as="geometry" />
        </mxCell>
        <mxCell id="J-1Qu8zJXRrtXZkDsQSx-51" value="" style="edgeStyle=orthogonalEdgeStyle;rounded=0;orthogonalLoop=1;jettySize=auto;html=1;" edge="1" parent="1" source="69ecfefc5c41e42c-4" target="69ecfefc5c41e42c-10">
          <mxGeometry relative="1" as="geometry" />
        </mxCell>
        <mxCell id="69ecfefc5c41e42c-4" value="Tablet" style="image;html=1;labelBackgroundColor=#ffffff;image=img/lib/clip_art/computers/iPad_128x128.png;rounded=1;shadow=0;comic=0;strokeWidth=2;fontSize=22" parent="1" vertex="1">
          <mxGeometry x="120" y="510" width="80" height="80" as="geometry" />
        </mxCell>
        <mxCell id="69ecfefc5c41e42c-5" value="PC" style="image;html=1;labelBackgroundColor=#ffffff;image=img/lib/clip_art/computers/Monitor_Tower_128x128.png;rounded=1;shadow=0;comic=0;strokeWidth=2;fontSize=22" parent="1" vertex="1">
          <mxGeometry x="120" y="250" width="80" height="80" as="geometry" />
        </mxCell>
        <mxCell id="J-1Qu8zJXRrtXZkDsQSx-35" style="edgeStyle=orthogonalEdgeStyle;rounded=0;orthogonalLoop=1;jettySize=auto;html=1;exitX=1;exitY=0.5;exitDx=0;exitDy=0;entryX=0;entryY=0.5;entryDx=0;entryDy=0;" edge="1" parent="1" source="69ecfefc5c41e42c-8" target="J-1Qu8zJXRrtXZkDsQSx-26">
          <mxGeometry relative="1" as="geometry" />
        </mxCell>
        <mxCell id="69ecfefc5c41e42c-8" value="Mobile" style="image;html=1;labelBackgroundColor=#ffffff;image=img/lib/clip_art/telecommunication/iPhone_128x128.png;rounded=1;shadow=0;comic=0;strokeWidth=2;fontSize=22" parent="1" vertex="1">
          <mxGeometry x="120" y="385" width="80" height="80" as="geometry" />
        </mxCell>
        <mxCell id="J-1Qu8zJXRrtXZkDsQSx-32" style="edgeStyle=orthogonalEdgeStyle;rounded=0;orthogonalLoop=1;jettySize=auto;html=1;entryX=0;entryY=0.5;entryDx=0;entryDy=0;" edge="1" parent="1" source="69ecfefc5c41e42c-10" target="J-1Qu8zJXRrtXZkDsQSx-26">
          <mxGeometry relative="1" as="geometry" />
        </mxCell>
        <mxCell id="69ecfefc5c41e42c-10" value="Laptop" style="image;html=1;labelBackgroundColor=#ffffff;image=img/lib/clip_art/computers/Netbook_128x128.png;rounded=1;shadow=0;comic=0;strokeWidth=2;fontSize=22" parent="1" vertex="1">
          <mxGeometry x="120" y="640" width="80" height="80" as="geometry" />
        </mxCell>
        <mxCell id="J-1Qu8zJXRrtXZkDsQSx-8" value="" style="edgeStyle=orthogonalEdgeStyle;rounded=0;orthogonalLoop=1;jettySize=auto;html=1;" edge="1" parent="1" source="J-1Qu8zJXRrtXZkDsQSx-1">
          <mxGeometry relative="1" as="geometry">
            <mxPoint x="800" y="500" as="targetPoint" />
          </mxGeometry>
        </mxCell>
        <mxCell id="J-1Qu8zJXRrtXZkDsQSx-10" style="edgeStyle=orthogonalEdgeStyle;rounded=0;orthogonalLoop=1;jettySize=auto;html=1;" edge="1" parent="1" source="J-1Qu8zJXRrtXZkDsQSx-1">
          <mxGeometry relative="1" as="geometry">
            <mxPoint x="590" y="500" as="targetPoint" />
          </mxGeometry>
        </mxCell>
        <mxCell id="J-1Qu8zJXRrtXZkDsQSx-1" value="" style="image;html=1;image=img/lib/clip_art/networking/Firewall_02_128x128.png" vertex="1" parent="1">
          <mxGeometry x="660" y="460" width="80" height="80" as="geometry" />
        </mxCell>
        <mxCell id="J-1Qu8zJXRrtXZkDsQSx-5" value="" style="edgeStyle=orthogonalEdgeStyle;rounded=0;orthogonalLoop=1;jettySize=auto;html=1;" edge="1" parent="1" source="J-1Qu8zJXRrtXZkDsQSx-2" target="J-1Qu8zJXRrtXZkDsQSx-1">
          <mxGeometry relative="1" as="geometry" />
        </mxCell>
        <mxCell id="J-1Qu8zJXRrtXZkDsQSx-11" style="edgeStyle=orthogonalEdgeStyle;rounded=0;orthogonalLoop=1;jettySize=auto;html=1;entryX=1;entryY=0.5;entryDx=0;entryDy=0;" edge="1" parent="1" source="J-1Qu8zJXRrtXZkDsQSx-2">
          <mxGeometry relative="1" as="geometry">
            <mxPoint x="400" y="505" as="targetPoint" />
          </mxGeometry>
        </mxCell>
        <mxCell id="J-1Qu8zJXRrtXZkDsQSx-2" value="" style="image;html=1;image=img/lib/clip_art/computers/Server_Tower_128x128.png" vertex="1" parent="1">
          <mxGeometry x="510" y="460" width="80" height="80" as="geometry" />
        </mxCell>
        <mxCell id="J-1Qu8zJXRrtXZkDsQSx-9" style="edgeStyle=orthogonalEdgeStyle;rounded=0;orthogonalLoop=1;jettySize=auto;html=1;entryX=1;entryY=0.5;entryDx=0;entryDy=0;" edge="1" parent="1" target="J-1Qu8zJXRrtXZkDsQSx-1">
          <mxGeometry relative="1" as="geometry">
            <mxPoint x="800" y="500" as="sourcePoint" />
          </mxGeometry>
        </mxCell>
        <mxCell id="J-1Qu8zJXRrtXZkDsQSx-18" value="Application Server" style="text;html=1;strokeColor=none;fillColor=none;align=center;verticalAlign=middle;whiteSpace=wrap;rounded=0;" vertex="1" parent="1">
          <mxGeometry x="530" y="550" width="40" height="20" as="geometry" />
        </mxCell>
        <mxCell id="J-1Qu8zJXRrtXZkDsQSx-19" value="Firewalll" style="text;html=1;strokeColor=none;fillColor=none;align=center;verticalAlign=middle;whiteSpace=wrap;rounded=0;" vertex="1" parent="1">
          <mxGeometry x="660" y="550" width="40" height="20" as="geometry" />
        </mxCell>
        <mxCell id="J-1Qu8zJXRrtXZkDsQSx-20" value="Database Server&lt;br&gt;(MS SQL)" style="text;html=1;strokeColor=none;fillColor=none;align=center;verticalAlign=middle;whiteSpace=wrap;rounded=0;" vertex="1" parent="1">
          <mxGeometry x="801" y="553" width="80" height="20" as="geometry" />
        </mxCell>
        <mxCell id="J-1Qu8zJXRrtXZkDsQSx-21" value="Loan Application URL &lt;br&gt;(eg. www.allianzloans.com)" style="text;html=1;strokeColor=none;fillColor=none;align=center;verticalAlign=middle;whiteSpace=wrap;rounded=0;" vertex="1" parent="1">
          <mxGeometry x="290" y="545" width="170" height="15" as="geometry" />
        </mxCell>
        <mxCell id="J-1Qu8zJXRrtXZkDsQSx-22" value="" style="image;html=1;image=img/lib/clip_art/people/Suit_Man_Black_128x128.png" vertex="1" parent="1">
          <mxGeometry x="40" y="465" width="80" height="80" as="geometry" />
        </mxCell>
        <mxCell id="J-1Qu8zJXRrtXZkDsQSx-25" value="" style="image;html=1;image=img/lib/clip_art/computers/Database_128x128.png" vertex="1" parent="1">
          <mxGeometry x="800" y="460" width="80" height="80" as="geometry" />
        </mxCell>
        <mxCell id="J-1Qu8zJXRrtXZkDsQSx-26" value="" style="image;html=1;image=img/lib/clip_art/computers/Network_128x128.png" vertex="1" parent="1">
          <mxGeometry x="320" y="460" width="80" height="80" as="geometry" />
        </mxCell>
        <mxCell id="J-1Qu8zJXRrtXZkDsQSx-27" style="edgeStyle=orthogonalEdgeStyle;rounded=0;orthogonalLoop=1;jettySize=auto;html=1;exitX=1;exitY=0.5;exitDx=0;exitDy=0;entryX=0;entryY=0.5;entryDx=0;entryDy=0;" edge="1" parent="1" source="69ecfefc5c41e42c-5" target="J-1Qu8zJXRrtXZkDsQSx-26">
          <mxGeometry relative="1" as="geometry">
            <mxPoint x="200" y="290" as="sourcePoint" />
            <mxPoint x="320" y="505" as="targetPoint" />
          </mxGeometry>
        </mxCell>
        <mxCell id="J-1Qu8zJXRrtXZkDsQSx-37" value="" style="edgeStyle=orthogonalEdgeStyle;rounded=0;orthogonalLoop=1;jettySize=auto;html=1;" edge="1" parent="1" source="J-1Qu8zJXRrtXZkDsQSx-41" target="J-1Qu8zJXRrtXZkDsQSx-36">
          <mxGeometry relative="1" as="geometry" />
        </mxCell>
        <mxCell id="J-1Qu8zJXRrtXZkDsQSx-36" value="" style="image;html=1;image=img/lib/clip_art/computers/Server_Tower_128x128.png" vertex="1" parent="1">
          <mxGeometry x="510" y="180" width="80" height="80" as="geometry" />
        </mxCell>
        <mxCell id="J-1Qu8zJXRrtXZkDsQSx-39" value="" style="edgeStyle=orthogonalEdgeStyle;rounded=0;orthogonalLoop=1;jettySize=auto;html=1;exitX=0.625;exitY=1.038;exitDx=0;exitDy=0;exitPerimeter=0;" edge="1" parent="1" source="J-1Qu8zJXRrtXZkDsQSx-41">
          <mxGeometry relative="1" as="geometry">
            <mxPoint x="560" y="374" as="sourcePoint" />
            <mxPoint x="560" y="464" as="targetPoint" />
          </mxGeometry>
        </mxCell>
        <mxCell id="J-1Qu8zJXRrtXZkDsQSx-41" value="" style="image;html=1;image=img/lib/clip_art/general/Earth_globe_128x128.png" vertex="1" parent="1">
          <mxGeometry x="510" y="320" width="80" height="80" as="geometry" />
        </mxCell>
        <mxCell id="J-1Qu8zJXRrtXZkDsQSx-42" value="" style="edgeStyle=orthogonalEdgeStyle;rounded=0;orthogonalLoop=1;jettySize=auto;html=1;" edge="1" parent="1" source="J-1Qu8zJXRrtXZkDsQSx-2" target="J-1Qu8zJXRrtXZkDsQSx-41">
          <mxGeometry relative="1" as="geometry">
            <mxPoint x="550" y="460" as="sourcePoint" />
            <mxPoint x="550" y="260" as="targetPoint" />
          </mxGeometry>
        </mxCell>
        <mxCell id="J-1Qu8zJXRrtXZkDsQSx-43" value="" style="edgeStyle=orthogonalEdgeStyle;rounded=0;orthogonalLoop=1;jettySize=auto;html=1;" edge="1" parent="1">
          <mxGeometry relative="1" as="geometry">
            <mxPoint x="559" y="258" as="sourcePoint" />
            <mxPoint x="559" y="319" as="targetPoint" />
            <Array as="points">
              <mxPoint x="559" y="258" />
            </Array>
          </mxGeometry>
        </mxCell>
        <mxCell id="J-1Qu8zJXRrtXZkDsQSx-44" value="API" style="text;html=1;strokeColor=none;fillColor=none;align=center;verticalAlign=middle;whiteSpace=wrap;rounded=0;" vertex="1" parent="1">
          <mxGeometry x="590" y="350" width="40" height="20" as="geometry" />
        </mxCell>
        <mxCell id="J-1Qu8zJXRrtXZkDsQSx-46" value="Core Financial Services Application Server" style="text;html=1;strokeColor=none;fillColor=none;align=center;verticalAlign=middle;whiteSpace=wrap;rounded=0;" vertex="1" parent="1">
          <mxGeometry x="470" y="150" width="130" height="20" as="geometry" />
        </mxCell>
      </root>
    </mxGraphModel>
  </diagram>
</mxfile>
